<?xml version="1.0" encoding="utf-8"?>
<!-- Generator: Adobe Illustrator 15.0.0, SVG Export Plug-In . SVG Version: 6.00 Build 0)  -->
<!DOCTYPE svg PUBLIC "-//W3C//DTD SVG 1.1//EN" "http://www.w3.org/Graphics/SVG/1.1/DTD/svg11.dtd">
<svg version="1.1" id="Layer_2" xmlns="http://www.w3.org/2000/svg" xmlns:xlink="http://www.w3.org/1999/xlink" x="0px" y="0px"
	 width="640px" height="480px" viewBox="0 0 640 480" enable-background="new 0 0 640 480" xml:space="preserve">
<g id="main">
	
		<rect id="slide1" x="59.811" y="-179.783" fill="#FFFFFF" stroke="#000000" stroke-width="0.25" stroke-miterlimit="10" width="322.707" height="230.179"/>
	
		<rect id="slide2_1_" x="382.52" y="-190.766" fill="#FFFFFF" stroke="#000000" stroke-width="0.25" stroke-miterlimit="10" width="338.101" height="241.16"/>
	
		<rect id="slide3" x="720.619" y="-179.785" fill="#FFFFFF" stroke="#000000" stroke-width="0.25" stroke-miterlimit="10" width="322.707" height="230.179"/>
	
		<rect id="slide4_1_" x="1043.324" y="-190.766" fill="#FFFFFF" stroke="#000000" stroke-width="0.25" stroke-miterlimit="10" width="338.102" height="241.16"/>
	
		<rect id="slide7" x="1093.876" y="-36.659" fill="#FFFFFF" stroke="#000000" stroke-width="0.25" stroke-miterlimit="10" width="65.556" height="46.759"/>
	
		<rect id="slide8_1_" x="1160.655" y="-29.848" fill="#FFFFFF" stroke="#000000" stroke-width="0.25" stroke-miterlimit="10" width="22.226" height="15.852"/>
	
		<rect id="slide5" x="1197.908" y="-74.831" fill="#FFFFFF" stroke="#000000" stroke-width="0.25" stroke-miterlimit="10" width="74.123" height="52.869"/>
	
		<rect id="slide6" x="1274.368" y="-58.162" fill="#FFFFFF" stroke="#000000" stroke-width="0.25" stroke-miterlimit="10" width="23.685" height="16.894"/>
	
		<rect id="slide9" x="344.636" y="217.397" fill="#FFFFFF" stroke="#000000" stroke-width="0.25" stroke-miterlimit="10" width="816.438" height="582.344"/>
	<text transform="matrix(1 0 0 1 1277.1328 -49.3994)" font-family="'ArialMT'" font-size="1.254">- you can write part of</text>
	<text transform="matrix(1 0 0 1 1277.1328 -47.8945)" font-family="'ArialMT'" font-size="1.254">  your app in C# or C++</text>
	<text transform="matrix(1 0 0 1 1277.1328 -52.4082)" font-family="'ArialMT'" font-size="1.254">- for things that don’t exist in web</text>
	<text transform="matrix(1 0 0 1 1277.1328 -50.9043)" font-family="'ArialMT'" font-size="1.254">- open files, write files, etc.</text>
	<text transform="matrix(1 0 0 1 1277.1328 -53.9746)" font-family="'ArialMT'" font-size="1.254">Windows Runtime</text>
	<g>
		<text transform="matrix(1 0 0 1 92.645 -117.6328)" font-family="'ArialMT'" font-size="36.6957">Windows </text>
		<text transform="matrix(1 0 0 1 255.314 -117.6328)" font-family="'ArialMT'" font-size="36.6957">8</text>
		<text transform="matrix(1 0 0 1 92.645 -49.0186)" font-family="'ArialMT'" font-size="36.6957">Metro</text>
		<text transform="matrix(1 0 0 1 92.645 20.209)" font-family="'ArialMT'" font-size="36.6957">with HTML5</text>
	</g>
	<g>
		<text transform="matrix(1 0 0 1 421.3701 -127.2773)" font-family="'ArialMT'" font-size="36.6957">What?</text>
		<text transform="matrix(1 0 0 1 421.3701 -77.0098)" font-family="'ArialMT'" font-size="22.0175">- a metro app</text>
		<text transform="matrix(1 0 0 1 421.3701 -50.5898)" font-family="'ArialMT'" font-size="22.0175">- user interface in html/css</text>
		<text transform="matrix(1 0 0 1 421.3701 -24.1689)" font-family="'ArialMT'" font-size="22.0175">- logic in JavaScript</text>
	</g>
	<g>
		<text transform="matrix(1 0 0 1 752.8555 -117.6328)" font-family="'ArialMT'" font-size="36.6957">Why?</text>
		<text transform="matrix(1 0 0 1 752.8555 -67.3652)" font-family="'ArialMT'" font-size="22.0175">- web developers can do it</text>
		<text transform="matrix(1 0 0 1 752.8555 -40.9453)" font-family="'ArialMT'" font-size="22.0175">- existing libraries</text>
		<text transform="matrix(1 0 0 1 752.8555 -14.9453)" font-family="'ArialMT'" font-size="22.0175">- code reuse</text>
	</g>
	<g>
		<text transform="matrix(1 0 0 1 1082.1777 -127.2773)" font-family="'ArialMT'" font-size="36.6957">How?</text>
		<text transform="matrix(1 0 0 1 1082.1777 -77.0098)" font-family="'ArialMT'" font-size="22.0175">- runs in Internet Explorer 10</text>
		<text transform="matrix(1 0 0 1 1082.1777 -42.5527)" font-family="'ArialMT'" font-size="22.0175">- native with WinRT</text>
		<text transform="matrix(1 0 0 1 1082.1777 -11.3105)" font-family="'ArialMT'" font-size="22.0175">- WinJS</text>
	</g>
	<text transform="matrix(1 0 0 1 1162.0742 -19.168)" font-family="'ArialMT'" font-size="1.6083">- declarative bindings</text>
	<text transform="matrix(1 0 0 1 1162.0742 -17.2383)" font-family="'ArialMT'" font-size="1.6083">- useful utilities</text>
	<text transform="matrix(1 0 0 1 1162.0742 -23.0273)" font-family="'ArialMT'" font-size="1.6083">- UI framework</text>
	<text transform="matrix(1 0 0 1 1162.0742 -21.0977)" font-family="'ArialMT'" font-size="1.6083">- Metro style components</text>
	<text transform="matrix(1 0 0 1 1162.0742 -25.0273)" font-family="'ArialMT'" font-size="1.6083">WinJS</text>
	<g>
		<text transform="matrix(1 0 0 1 390.8008 349.873)" font-family="'ArialMT'" font-size="92.839">This presentation</text>
		<text transform="matrix(1 0 0 1 411.6963 478.6543)" font-family="'ArialMT'" font-size="55.7034">- vector graphics (SVG)</text>
		<text transform="matrix(1 0 0 1 411.6963 545.4971)" font-family="'ArialMT'" font-size="55.7034">- jQuery for animation</text>
		<text transform="matrix(1 0 0 1 411.6963 616.2168)" font-family="'ArialMT'" font-size="55.7034">- native integrations in C#</text>
	</g>
</g>
</svg>
